<?xml version="1.0" encoding="utf-8"?>
<!-- Generator: Adobe Illustrator 26.4.1, SVG Export Plug-In . SVG Version: 6.00 Build 0)  -->
<svg version="1.1" id="bf82f980-5535-4b30-acd2-35df968bf9bd"
	 xmlns="http://www.w3.org/2000/svg" xmlns:xlink="http://www.w3.org/1999/xlink" x="0px" y="0px" viewBox="0 0 49.8 50"
	 style="enable-background:new 0 0 49.8 50;" xml:space="preserve">
<style type="text/css">
	.st0{fill-rule:evenodd;clip-rule:evenodd;fill:#00A7B5;}
	.st1{fill:#FFFFFF;}
	.st2{fill-rule:evenodd;clip-rule:evenodd;fill:#FFFFFF;}
</style>
<g>
	<path class="st0" d="M-0.1,8.3L-0.1,8.3C-0.1,3.7,3.6,0,8.2,0h33.3c4.6,0,8.3,3.7,8.3,8.3v33.3c0,4.6-3.7,8.3-8.3,8.3H8.2
		c-4.6,0-8.3-3.7-8.3-8.3V8.3z"/>
	<rect x="12.4" y="16.3" class="st1" width="6.3" height="6.3"/>
	<rect x="31.1" y="16.2" class="st1" width="6.3" height="6.3"/>
	<rect x="7.9" y="8.1" transform="matrix(0.9661 -0.2582 0.2582 0.9661 -2.1421 3.8895)" class="st1" width="11.7" height="4"/>
	<polygon class="st2" points="30.7,6.7 42,9.8 41,13.6 29.7,10.5 	"/>
	<path class="st2" d="M29.5,37.2h4.4c-0.1-4.8-4-8.7-8.8-8.8c-5-0.1-9,3.9-9.1,8.8h4.4l0,0H29.5L29.5,37.2z"/>
</g>
</svg>
